<svg id="Capa_1" data-name="Capa 1" xmlns="http://www.w3.org/2000/svg" width="127.78" height="121.51" viewBox="0 0 127.78 121.51">
  <defs>
    <style>
      .cls-1 {
        fill: #fff;
      }
    </style>
  </defs>
  <path class="cls-1" d="M163.14,78.12c-9.33,35.86-36.59,57.32-63.26,79.68C78.12,141,58.17,123.3,44.48,99.69c-6-10.31-10-21.34-7.72-33.57,2.64-14,10.87-23.61,24.45-28,13.42-4.3,25.42-1,35.73,8.47.82.75,1.22,2,2,3.3,7.75-8.26,16.06-13,26.31-13.44A35.79,35.79,0,0,1,162,63.07c.3,1.07.78,2.1,1.17,3.14C163.74,70.92,164.48,73.57,163.14,78.12ZM99.65,65.19c-1.79-3-3.06-5.31-4.48-7.51A27.31,27.31,0,0,0,44.71,69.77c-.75,7.67,1.41,14.79,4.82,21.48,11.69,22.94,30.31,39.67,50,55.82,13.84-10.87,26.5-22.4,37.26-35.9,7.34-9.23,13.87-18.93,16.82-30.58,3.71-14.68-2.93-28.6-16.15-33.9s-27.12.05-34.69,13.1Z" transform="translate(-36.11 -36.3)"/>
</svg>
