<svg id="Capa_1" data-name="Capa 1" xmlns="http://www.w3.org/2000/svg" width="383.25" height="384" viewBox="0 0 383.25 384">
  <defs>
    <style>
      .cls-1 {
        fill: #fff;
      }
    </style>
  </defs>
  <g>
    <path class="cls-1" d="M344.75,334.5V597a8.58,8.58,0,0,0-.68,1.68c-4.7,27.7-20.43,46.18-46.67,55.7-4.28,1.55-8.85,2.27-13.28,3.37h-262a8,8,0,0,0-1.68-.68c-34.53-5.31-58.93-33.63-58.93-68.53q0-123.16,0-246.33a68.32,68.32,0,0,1,49.1-65.62c3.78-1.12,7.67-1.9,11.51-2.84h262a8.58,8.58,0,0,0,1.68.68c28.58,5,47.23,21.4,56.24,48.91C343.23,327,343.86,330.77,344.75,334.5Zm-360.81,131q0,61.31,0,122.6c0,26.61,20.35,47.16,46.81,47.18q122.37.1,244.72,0c26.32,0,46.77-20.46,46.8-46.8q.11-122.79,0-245.57a46.18,46.18,0,0,0-46.6-46.61q-122.55-.11-245.1.06a48.58,48.58,0,0,0-13.59,2c-20,6-33,23.71-33,44.88Q-16.12,404.35-16.06,465.46Z" transform="translate(38.5 -273.75)"/>
    <path class="cls-1" d="M200.67,380.75c-27.56,0-55.12,0-82.68-.06-2.62,0-3.78.83-4.93,3.22-6.42,13.37-17.26,20.76-32,20.78s-25.83-7.38-32.27-20.93c-1.08-2.28-2.19-3.12-4.69-3.07-7.6.17-15.22.17-22.82,0-5.75-.11-9.64-3.13-11.21-8.22-1.35-4.37,0-9.48,3.91-11.91a18.29,18.29,0,0,1,8.36-2.52c7.34-.34,14.71-.18,22.06-.08a3.85,3.85,0,0,0,4.19-2.63C55,341.62,65.92,334,81,334s26,7.59,32.31,21.38c1.21,2.65,2.85,2.55,5,2.55q82.49,0,165,0c6.75,0,11,2.58,12.78,7.7a11.16,11.16,0,0,1-7.5,14.49,23.44,23.44,0,0,1-5.92.6Q241.65,380.79,200.67,380.75ZM68.32,369.4A12.48,12.48,0,0,0,80.84,382a12.71,12.71,0,1,0,.25-25.42A12.55,12.55,0,0,0,68.32,369.4Z" transform="translate(38.5 -273.75)"/>
    <path class="cls-1" d="M224.91,573.56c-19.57,0-39.15,0-58.73,0-2.51,0-3.82.58-5,3.1-6.33,13.42-17.18,20.8-31.91,20.85S103.38,590.21,97,576.62c-1.18-2.49-2.52-3.11-5-3.1-22.44.08-44.89,0-67.33,0-1.13,0-2.25,0-3.37,0-6.68-.34-11.62-5.1-11.72-11.25S14.38,551,21.29,550.8c8.23-.18,16.46,0,24.69,0,15.34,0,30.67-.06,46,0,2.59,0,3.85-.76,5-3.2,6.35-13.45,17.25-20.72,31.95-20.79S154.63,534,161,547.39c1.34,2.8,2.81,3.41,5.58,3.41q58.37-.12,116.72,0c6.55,0,10.76,2.51,12.62,7.41,2.87,7.6-2.54,15.18-11.19,15.36-8.35.18-16.71,0-25.07,0ZM116.38,562.11a12.62,12.62,0,0,0,12.75,12.76A12.86,12.86,0,0,0,141.89,562a12.72,12.72,0,0,0-12.69-12.52A12.49,12.49,0,0,0,116.38,562.11Z" transform="translate(38.5 -273.75)"/>
    <path class="cls-1" d="M191.68,454.51c4.07-10.77,11.24-18.34,22-22.18a35.08,35.08,0,0,1,43.89,19.18c1,2.29,2,3.14,4.59,3.07,7.6-.19,15.21-.1,22.82-.06,6.79,0,11.9,5,11.8,11.38s-5.12,11-11.74,11.07c-7.85,0-15.71-.06-23.56.1a4.42,4.42,0,0,0-3.34,1.88c-6.68,14.49-17.78,22.39-33.79,22-15.7-.39-26.25-8.77-32.27-23.11a6.15,6.15,0,0,0-.55-.84h-4.31Q105.08,477,23,477a19.87,19.87,0,0,1-5.18-.42c-5.42-1.5-9-7.06-8.21-12.27.94-5.86,5.6-9.76,11.84-9.76H191.68Zm46.23,11.25A12.57,12.57,0,0,0,225.2,453a12.78,12.78,0,0,0,0,25.56A12.6,12.6,0,0,0,237.91,465.76Z" transform="translate(38.5 -273.75)"/>
  </g>
</svg>
