<svg id="Capa_1" data-name="Capa 1" xmlns="http://www.w3.org/2000/svg" width="383.31" height="277.23" viewBox="0 0 383.31 277.23">
  <defs>
    <style>
      .cls-1 {
        fill: #fff;
      }
    </style>
  </defs>
  <g>
    <path class="cls-1" d="M-499.25,373.63c2.66-5.53,6.1-10.23,12.64-11.47a24.47,24.47,0,0,1,4.44-.43q174.53,0,349,0c9.17,0,16.2,5.86,17.06,14a16,16,0,0,1-12.65,17.7,26.59,26.59,0,0,1-5.58.34q-172.09,0-344.18.15c-9.82,0-16.9-2.79-20.77-12.07Z" transform="translate(499.25 -239.22)"/>
    <path class="cls-1" d="M-499.25,496.39c.49-1,1-2,1.46-2.93,2.85-5.52,7.22-8.81,13.54-9.12,2.61-.13,5.24-.07,7.86-.07H-134c9.46,0,15.39,4.05,17.56,11.94,2.37,8.63-3.34,17.95-12.12,19.57a41.15,41.15,0,0,1-7.44.54q-171.56,0-343.11.12c-9.71,0-16.65-3.18-20.1-12.57Z" transform="translate(499.25 -239.22)"/>
    <path class="cls-1" d="M-499.25,251.62c3.52-9.35,10.43-12.42,20.17-12.4q171.74.25,343.47.13a34.43,34.43,0,0,1,7.81.58c7.42,1.74,12.28,8.92,11.76,16.92a15.81,15.81,0,0,1-14,14.3,54.26,54.26,0,0,1-6,.24q-171.54,0-343.09.11c-9.73,0-16.66-3-20.18-12.39Z" transform="translate(499.25 -239.22)"/>
  </g>
</svg>
