<svg id="Capa_1" data-name="Capa 1" xmlns="http://www.w3.org/2000/svg" width="247.94" height="247.86" viewBox="0 0 247.94 247.86">
  <defs>
    <style>
      .cls-1 {
        fill: #414042;
      }
    </style>
  </defs>
  <g>
    <path class="cls-1" d="M-443.17,417.26v-6.78c2.16-10.11,9.28-16.78,16.22-23.65,14.32-14.19,28.54-28.5,42.8-42.76,3.21-3.2,3.37-4,1.14-8a100.72,100.72,0,0,1-12.83-40.16c-1.73-18.34,1.07-35.94,9.4-52.32,15.86-31.18,41.15-49.88,75.79-55.65,2.77-.47,5.57-.75,8.35-1.12h13.07a19.16,19.16,0,0,0,2.11.41,91.32,91.32,0,0,1,30.55,7.56c33.37,15,53.55,40.54,59.89,76.71a94.66,94.66,0,0,1-4.09,48.35c-10.88,30.92-32.07,51.74-62.81,62.82-14.19,5.12-28.94,6.26-43.84,4.41a98.54,98.54,0,0,1-37.24-12.63c-3.73-2.14-4.75-1.93-7.81,1.14l-48.77,48.76c-3.74,3.73-7.84,7-12.88,8.75-8.16,2.87-15.61,2-22.15-4.2A25.07,25.07,0,0,1-443.17,417.26Zm221.59-130c-.47-41.37-32.93-74.06-74.22-74.08-41.61,0-74.3,33.14-74.23,74.49.07,41,33.63,74.23,74.4,73.89C-254.16,361.22-221.91,328.37-221.58,287.27Z" transform="translate(443.17 -186.83)"/>
    <path class="cls-1" d="M-259.57,241.56a10.41,10.41,0,0,1-13.34,10.18c-4.7-1.32-9.41-3-14.23-3.5-18.26-2.08-36.15,8.08-44.2,24.62a21.86,21.86,0,0,1-3.25,5.31,10.23,10.23,0,0,1-13,1.53,10.36,10.36,0,0,1-3.89-12.78,64.23,64.23,0,0,1,15-21.73,65.27,65.27,0,0,1,32.6-16.87A64.12,64.12,0,0,1-266,232.19,9.89,9.89,0,0,1-259.57,241.56Z" transform="translate(443.17 -186.83)"/>
  </g>
</svg>
