<svg id="Capa_1" data-name="Capa 1" xmlns="http://www.w3.org/2000/svg" width="408.42" height="72.12" viewBox="0 0 408.42 72.12">
  <defs>
    <style>
      .cls-1 {
        fill: #2c2c2c;
      }
    </style>
  </defs>
  <g>
    <path class="cls-1" d="M-549.2,612.31c2.56-3.32,6.43-3.25,10-3.86,4.7-.78,10.4-.16,13.84-2.66s4.64-8.1,6.82-12.35c.72-1.42,1.12-3.14,2.19-4.21,1.39-1.38,3.3-3.09,5-3.09a6.9,6.9,0,0,1,4.91,3.12c2.75,4.68,4.81,9.77,7.47,14.51a6.66,6.66,0,0,0,4,2.92c5.2,1,10.55,1.38,15.71,2.57,2,.47,4.56,2.15,5.22,3.9.58,1.5-.68,4.34-2,5.81-3.54,3.95-7.67,7.37-11.28,11.26a6.68,6.68,0,0,0-1.54,4.76c.58,5,1.92,9.92,2.38,14.93.2,2.25-.35,5.17-1.72,6.8-2,2.37-4.86,1-7.3-.29-4.45-2.38-8.86-4.86-13.45-6.93a6.67,6.67,0,0,0-5,0c-4.82,2.22-9.34,5.09-14.2,7.21-1.8.79-4.77,1-6.18,0s-2.21-3.87-2-5.81a123,123,0,0,1,2.56-15.71c.56-2.5-.23-3.9-1.91-5.51-4.6-4.39-9-9-13.54-13.46Z" transform="translate(549.2 -585.9)"/>
    <path class="cls-1" d="M-453.34,651.7c.91-5.23,1.76-10.74,2.87-16.2a5.25,5.25,0,0,0-1.74-5.61A132.5,132.5,0,0,1-463.32,619c-1.35-1.55-2.53-4.5-1.94-6.16s3.33-3.18,5.37-3.65c5-1.15,10.25-1.49,15.31-2.52a6.76,6.76,0,0,0,4.06-2.87c2.44-4.25,4.49-8.73,6.62-13.15,1.19-2.49,2.47-4.75,5.7-4.78,3.42,0,4.75,2.33,6,5,2,4.32,4,8.68,6.44,12.79a7.36,7.36,0,0,0,4.36,3.06c4.93,1,10,1.33,14.91,2.49,2.17.52,5.13,2.07,5.69,3.81s-1,4.72-2.42,6.41a125,125,0,0,1-10.5,10.34c-1.72,1.58-2.46,3-1.93,5.5A128.49,128.49,0,0,1-403.12,651c.17,1.94-.62,4.84-2,5.81s-4.38.75-6.2,0a112.1,112.1,0,0,1-13.4-7c-2.53-1.52-4.47-1.3-6.9.1-4.47,2.6-9.07,5-13.73,7.24C-449.8,659.26-453.59,656.72-453.34,651.7Z" transform="translate(549.2 -585.9)"/>
    <path class="cls-1" d="M-307,615.52a20.41,20.41,0,0,1-2.39,3.47c-3.63,3.71-7.57,7.13-11,11a8,8,0,0,0-1.78,5.5c.53,5.14,1.89,10.2,2.39,15.34.19,2-.48,4.85-1.84,5.86s-4.39.93-6.18.16a132.33,132.33,0,0,1-13.79-7.14c-2.2-1.26-3.91-1.43-6.19-.08a112.43,112.43,0,0,1-13.42,7c-1.93.82-5.05,1.16-6.51.13s-2.1-4.1-1.91-6.16c.47-5.15,1.82-10.21,2.36-15.35a7.37,7.37,0,0,0-1.7-5.15c-3.58-3.93-7.73-7.33-11.24-11.31-1.28-1.46-2.3-4.29-1.74-5.91s3.09-3.17,5-3.59c5.31-1.16,10.78-1.59,16.13-2.59a5.69,5.69,0,0,0,3.48-2.5c2.61-4.77,4.69-9.84,7.45-14.52,1-1.66,3.33-3.45,5.07-3.47s4.13,1.74,5.1,3.39c2.71,4.55,4.67,9.54,7.26,14.17a6.7,6.7,0,0,0,4,2.94c5.34,1.06,10.76,1.68,16.15,2.48C-309.2,609.63-307.15,611.15-307,615.52Z" transform="translate(549.2 -585.9)"/>
    <path class="cls-1" d="M-203.48,651.47c.89-5.19,2-10.8,2.71-16.45a6.67,6.67,0,0,0-1.51-4.76c-3.51-3.81-7.56-7.11-11-11a9.4,9.4,0,0,1-2.41-6.17c.19-2.83,2.91-3.7,5.62-4.05,5.27-.67,10.54-1.4,15.75-2.4a5.69,5.69,0,0,0,3.49-2.5c2.6-4.77,4.67-9.85,7.42-14.52,1-1.67,3.34-3.46,5.07-3.47s4.11,1.75,5.1,3.4a138.09,138.09,0,0,1,7,13.85c1,2.14,2.17,3.24,4.68,3.49a118.35,118.35,0,0,1,15.34,2.34c2,.47,4.6,2.08,5.29,3.82.6,1.49-.63,4.35-1.94,5.83A149.85,149.85,0,0,1-154,629.79c-1.73,1.58-2.44,3-1.88,5.5a115.52,115.52,0,0,1,2.52,15.31c.18,2.07-.58,5.18-2,6.18s-4.59.61-6.55-.21A119.82,119.82,0,0,1-175,649.78c-2.3-1.33-4.15-1.48-6.53-.08-4.57,2.68-9.31,5.11-14.09,7.42C-200.09,659.29-203.7,656.82-203.48,651.47Zm38.54-8.39C-170,631.94-165.8,624.42-157,618c-11.71.84-18.31-4.44-20.88-16.18-2.08,4.21-3.6,7.12-5,10.1a7.38,7.38,0,0,1-6.38,4.67c-3.22.34-6.41,1-9.61,1.52l-.94.69c10.11,5.59,12.34,13.75,8.39,24.45C-182.5,635.81-174,636-164.94,643.08Z" transform="translate(549.2 -585.9)"/>
    <path class="cls-1" d="M-286.79,651.24c.89-5.19,2-10.8,2.71-16.45a6.67,6.67,0,0,0-1.51-4.76c-3.51-3.81-7.56-7.11-11-11a9.4,9.4,0,0,1-2.41-6.17c.19-2.83,2.91-3.7,5.63-4,5.26-.67,10.53-1.4,15.74-2.4a5.69,5.69,0,0,0,3.49-2.5c2.6-4.77,4.67-9.85,7.42-14.52,1-1.67,3.34-3.46,5.07-3.47s4.11,1.75,5.1,3.4a137,137,0,0,1,7,13.85c1,2.14,2.17,3.24,4.68,3.49A118.35,118.35,0,0,1-229.54,609c2,.47,4.6,2.08,5.3,3.82.59,1.49-.64,4.35-1.95,5.83a147.76,147.76,0,0,1-11.08,10.88c-1.73,1.59-2.44,3-1.88,5.51a115.52,115.52,0,0,1,2.52,15.31c.18,2.07-.58,5.18-2,6.18s-4.59.61-6.55-.21a119.82,119.82,0,0,1-13.06-6.79c-2.3-1.33-4.14-1.48-6.53-.08-4.57,2.68-9.31,5.11-14.08,7.42C-283.4,659.06-287,656.59-286.79,651.24Zm38.54-8.39c-5.11-11.14-.86-18.66,7.91-25.12-11.71.84-18.31-4.44-20.88-16.18-2.08,4.21-3.6,7.12-5,10.1a7.39,7.39,0,0,1-6.38,4.67c-3.22.34-6.41,1-9.61,1.52l-.94.69c10.11,5.59,12.34,13.75,8.39,24.45C-265.81,635.58-257.35,635.74-248.25,642.85Z" transform="translate(549.2 -585.9)"/>
  </g>
</svg>
